HIERARCHY
ROOT Hips
{
	OFFSET	0.00	0.00	0.00
	CHANNELS 6 Xposition Yposition Zposition Zrotation Xrotation Yrotation
	JOINT LeftUpperLeg
	{
		OFFSET	 0.100000	-0.066564	-0.000554
		CHANNELS 3 Zrotation Xrotation Yrotation
		JOINT LeftLowerLeg
		{
			OFFSET	 0.002447	-0.463436	-0.005172
			CHANNELS 3 Zrotation Xrotation Yrotation
			JOINT LeftFoot
			{
				OFFSET	-0.002447	-0.420480	-0.020576
				CHANNELS 3 Zrotation Xrotation Yrotation
				JOINT LeftToes
				{
					OFFSET	 0.003734	-0.104922	 0.126407
					CHANNELS 3 Zrotation Xrotation Yrotation
					End Site
					{
						OFFSET	 0.000000	 0.000000	 0.059955
					}
				}
			}
		}
	}
	JOINT RightUpperLeg
	{
		OFFSET	-0.100000	-0.066564	-0.000554
		CHANNELS 3 Zrotation Xrotation Yrotation
		JOINT RightLowerLeg
		{
			OFFSET	-0.002447	-0.463436	-0.005146
			CHANNELS 3 Zrotation Xrotation Yrotation
			JOINT RightFoot
			{
				OFFSET	 0.002447	-0.420479	-0.020602
				CHANNELS 3 Zrotation Xrotation Yrotation
				JOINT RightToes
				{
					OFFSET	-0.003734	-0.104922	 0.126407
					CHANNELS 3 Zrotation Xrotation Yrotation
					End Site
					{
						OFFSET	-0.000000	 0.000000	 0.059955
					}
				}
			}
		}
	}
	JOINT Spine
	{
		OFFSET	 0.000000	 0.099235	-0.012273
		CHANNELS 3 Zrotation Xrotation Yrotation
		JOINT Chest
		{
			OFFSET	-0.000001	 0.116455	-0.014223
			CHANNELS 3 Zrotation Xrotation Yrotation
			JOINT UpperChest
			{
				OFFSET	 0.000001	 0.133602	-0.016265
				CHANNELS 3 Zrotation Xrotation Yrotation
				JOINT LeftShoulder
				{
					OFFSET	 0.061058	 0.091105	 0.007056
					CHANNELS 3 Zrotation Xrotation Yrotation
					JOINT LeftUpperArm
					{
						OFFSET	 0.133942	-0.002659	-0.026009
						CHANNELS 3 Zrotation Xrotation Yrotation
						JOINT LeftLowerArm
						{
							OFFSET	 0.274047	 0.000000	 0.000000
							CHANNELS 3 Zrotation Xrotation Yrotation
							JOINT LeftHand
							{
								OFFSET	 0.276145	 0.000000	 0.000000
								CHANNELS 3 Zrotation Xrotation Yrotation
								End Site
								{
									OFFSET	 0.165687	 0.000000	 0.000000
								}
							}
						}
					}
				}
				JOINT Neck
				{
					OFFSET	 0.000000	 0.150325	 0.007929
					CHANNELS 3 Zrotation Xrotation Yrotation
					JOINT Head
					{
						OFFSET	 0.000000	 0.103218	 0.031424
						CHANNELS 3 Zrotation Xrotation Yrotation
						End Site
						{
							OFFSET	 0.000000	 0.061931	 0.018855
						}
					}
				}
				JOINT RightShoulder
				{
					OFFSET	-0.061057	 0.091105	 0.007056
					CHANNELS 3 Zrotation Xrotation Yrotation
					JOINT RightUpperArm
					{
						OFFSET	-0.133943	-0.002660	-0.026009
						CHANNELS 3 Zrotation Xrotation Yrotation
						JOINT RightLowerArm
						{
							OFFSET	-0.274047	 0.000000	 0.000000
							CHANNELS 3 Zrotation Xrotation Yrotation
							JOINT RightHand
							{
								OFFSET	-0.276145	 0.000000	 0.000000
								CHANNELS 3 Zrotation Xrotation Yrotation
								End Site
								{
									OFFSET	-0.165687	 0.000000	 0.000000
								}
							}
						}
					}
				}
			}
		}
	}
}
MOTION
Frames:    16
Frame Time: 0.03333334
-0.264630	 1.042950	-0.261340	 2.003887	 2.975718	-8.240277	 8.063712	-11.390650	 5.536859	 0.000670	 0.082459	 0.000615	-8.540802	 8.933594	 10.445300	-0.000258	 0.356391	 0.058161	-7.318281	 2.886544	-27.337550	-0.018848	 9.756609	 0.009030	 6.864937	-13.161490	-2.211222	-0.000378	 0.766568	-0.000326	 1.836845	 0.242940	-0.814469	-0.000000	 0.000000	 0.000000	 3.684554	 0.460726	-1.639269	 4.163309	 0.735729	-13.074430	-87.228970	-34.466970	 4.260329	-12.067500	 3.322796	-25.124580	 22.938880	 18.997530	-22.458880	-3.166216	-4.384220	-11.238600	-2.900714	-3.934672	-11.232300	 3.355098	 5.709639	-15.441920	 75.872890	 5.843961	 9.270955	 7.108669	-0.081465	 21.651040	-16.445210	 31.407550	 19.369060
-0.258560	 1.047440	-0.262660	 2.102659	 3.329491	-8.603149	 5.372812	-12.900080	 3.928800	-0.030372	 4.421264	-0.001624	-5.226372	 6.775029	 13.480420	 0.000370	-0.259480	 0.113479	-5.859189	 6.214047	-26.235410	 0.000741	 0.984797	 0.000094	 8.606599	-8.412654	-3.522822	-0.000868	 0.533566	-0.000265	 1.844843	-0.152451	-0.996235	-0.000000	 0.000000	 0.000000	 3.693652	-0.338105	-1.991099	 4.306258	 0.531642	-13.069150	-88.079010	-33.399650	 3.665764	-6.491611	 5.379701	-19.834780	 26.539030	 20.969630	-28.340450	-3.596441	-4.896934	-12.071600	-3.685194	-4.422995	-11.871870	 3.767140	 6.000014	-15.144390	 76.762370	 5.909448	 8.867009	 3.413144	 0.714796	 17.889860	-19.427180	 30.758680	 20.762620
-0.257170	 1.049230	-0.260980	 1.858114	 3.223977	-8.574207	 4.857172	-13.927590	 4.183322	-0.008521	 7.517068	-0.004641	-3.933605	 5.220212	 13.745920	-0.000075	-0.550918	 0.164724	-5.531477	 6.830262	-26.204260	-0.000172	 0.080014	 0.000693	 8.812065	-7.946091	-3.559410	-0.000457	 0.484615	-0.000774	 1.837993	-0.211073	-1.116555	-0.000000	 0.000000	 0.000000	 3.678537	-0.460326	-2.231653	 4.156913	 0.884770	-13.421480	-88.273030	-32.844950	 3.483936	-4.412912	 5.973963	-17.905790	 28.689650	 22.649670	-30.789570	-3.761342	-4.569456	-12.375060	-3.732544	-4.462553	-12.125700	 3.937356	 6.335031	-15.352000	 76.730640	 6.351425	 8.491138	 2.250686	 0.923978	 16.109860	-21.229860	 30.884860	 22.003180
-0.257170	 1.049230	-0.260980	 1.858114	 3.223977	-8.574207	 4.857172	-13.927590	 4.183322	-0.008521	 7.517068	-0.004641	-3.933605	 5.220212	 13.745920	-0.000075	-0.550918	 0.164724	-5.531477	 6.830262	-26.204260	-0.000172	 0.080014	 0.000693	 8.812065	-7.946091	-3.559410	-0.000457	 0.484615	-0.000774	 1.837993	-0.211073	-1.116555	-0.000000	 0.000000	 0.000000	 3.678537	-0.460326	-2.231653	 4.156913	 0.884770	-13.421480	-88.273030	-32.844950	 3.483936	-4.412912	 5.973963	-17.905790	 28.689650	 22.649670	-30.789570	-3.761342	-4.569456	-12.375060	-3.732544	-4.462553	-12.125700	 3.937356	 6.335031	-15.352000	 76.730640	 6.351425	 8.491138	 2.250686	 0.923978	 16.109860	-21.229860	 30.884860	 22.003180
-0.255980	 1.050700	-0.258020	 1.510361	 3.073391	-8.218042	 4.548975	-13.252920	 4.445119	 0.018328	 7.392455	-0.006043	-3.550667	 4.350462	 13.410030	 0.000177	 0.151108	 0.119204	-5.251805	 7.235183	-26.582610	-0.000309	 0.074915	 0.000412	 8.874207	-7.986506	-3.404710	-0.000647	 0.427718	-0.000150	 1.823626	-0.227557	-1.355409	-0.000000	 0.000000	 0.000000	 3.648434	-0.500443	-2.708935	 4.122798	 0.974044	-13.908880	-88.485710	-32.424830	 3.347370	-2.755113	 6.110310	-16.310760	 29.995320	 23.428420	-31.984920	-3.786362	-4.554776	-12.840450	-3.720498	-4.543637	-12.361050	 4.244149	 6.271223	-15.590120	 76.664410	 6.566427	 8.132998	 1.297412	 1.180766	 14.183020	-23.246420	 31.188000	 23.576480
-0.252720	 1.051110	-0.253370	 1.856969	 3.374398	-7.941248	 3.717443	-13.303760	 4.114440	 0.012478	 7.554521	-0.006804	-3.588808	 3.693222	 13.582120	 0.000103	-0.018784	 0.085507	-5.714588	 7.170338	-26.642520	-0.000038	 0.074887	 0.000070	 8.581802	-8.072310	-3.634521	-0.000818	 0.377731	 0.000546	 1.485141	-0.482769	-1.522331	-0.000000	 0.000000	 0.000000	 2.963370	-1.003909	-3.037957	 3.582097	 0.813208	-14.027750	-88.561230	-32.251750	 2.973446	-1.068199	 6.595858	-14.194300	 31.348950	 23.744560	-33.182030	-4.358788	-5.063325	-13.147300	-3.669858	-4.550367	-12.789690	 4.101681	 5.818568	-15.655230	 76.874340	 6.106953	 7.684898	 0.193032	 1.864054	 11.832650	-26.354110	 31.603890	 25.609760
-0.249720	 1.050700	-0.247740	 2.022388	 3.515023	-7.774416	 3.317321	-13.623940	 3.493533	-0.007776	 8.502059	-0.005319	-3.740064	 2.679174	 14.028210	-0.000608	-0.111002	 0.058370	-6.037095	 7.342826	-26.894420	-0.000079	 0.080124	 0.000208	 8.378647	-8.184084	-3.595411	 0.001111	 0.355219	 0.000148	 1.265048	-0.774193	-1.590882	-0.000000	 0.000000	 0.000000	 2.511297	-1.586161	-3.171845	 3.866952	 1.269618	-13.915610	-88.468330	-31.984140	 3.055987	-0.196310	 7.031334	-13.256880	 32.520330	 24.021190	-33.999270	-4.100900	-4.857721	-13.311450	-3.668579	-4.261858	-13.147510	 4.311992	 5.954503	-15.446720	 77.480250	 5.139424	 6.597988	-0.524567	 2.290920	 10.859480	-28.046990	 31.480020	 26.545490
-0.245310	 1.050020	-0.239310	 1.896453	 3.318329	-7.894271	 3.091883	-13.921420	 3.148293	 0.005171	 10.582620	-0.009214	-3.606012	 0.748139	 14.491960	 0.000114	 0.141624	 0.040013	-6.275606	 7.995597	-26.762720	-0.000655	 0.079115	 0.000434	 8.407873	-8.387777	-3.619926	 0.000697	 0.353429	 0.000273	 1.152645	-0.895662	-1.593943	-0.000000	 0.000000	 0.000000	 2.283917	-1.826314	-3.174713	 3.957864	 2.023491	-13.720750	-88.352060	-31.759690	 3.259054	 0.351711	 7.734764	-12.835200	 33.336660	 23.980700	-34.651250	-3.889135	-4.145522	-13.602810	-3.674695	-3.893355	-13.588890	 4.313432	 6.312290	-15.325390	 77.799790	 4.390232	 5.158816	-0.572495	 1.508968	 10.012450	-29.215480	 30.888900	 27.246530
-0.241440	 1.049210	-0.232640	 1.885825	 3.108354	-8.237189	 2.879654	-14.243270	 3.037991	-0.036465	 12.500280	-0.005624	-3.062570	-0.638053	 14.683620	-0.000022	 0.144307	 0.062461	-6.628076	 8.505435	-26.337360	-0.000089	 0.080250	-0.000186	 8.458815	-8.557196	-3.736015	-0.000808	 0.352149	-0.000454	 1.094943	-0.890870	-1.539828	-0.000000	 0.000000	 0.000000	 2.168054	-1.813326	-3.066114	 3.851950	 2.473204	-13.425320	-88.193440	-31.838390	 3.400200	 0.353261	 8.185742	-12.975330	 32.580840	 23.094320	-34.548470	-3.851330	-3.741544	-13.669210	-3.742344	-3.740155	-13.781870	 4.116580	 6.305019	-15.132720	 77.936040	 4.247274	 3.843244	-0.632536	 0.853724	 9.774497	-28.989850	 29.685260	 27.598510
-0.236930	 1.047560	-0.223140	 2.069479	 2.973328	-8.881199	 2.558304	-14.678220	 3.859643	 0.009325	 14.889280	-0.011673	-2.678135	-2.577493	 14.223880	 0.000206	 0.293067	 0.064607	-7.278073	 9.023095	-26.272340	 0.000477	 0.079725	 0.000208	 8.650480	-8.726050	-3.214944	 0.000490	 0.350135	 0.000326	 0.838589	-0.981855	-1.384631	-0.000000	 0.000000	 0.000000	 1.656197	-1.986707	-2.759390	 3.555843	 2.646558	-12.992910	-88.045430	-32.239010	 3.370869	-0.139570	 7.940913	-13.476990	 32.595940	 24.013030	-34.812730	-4.206399	-3.492732	-13.815250	-3.723374	-3.270544	-14.125340	 3.851952	 5.883723	-15.024270	 77.892320	 4.542837	 2.553270	-1.219008	 1.956633	 11.808070	-27.114200	 28.359530	 24.461940
-0.233640	 1.046120	-0.215790	 2.073279	 2.903815	-9.182432	 2.425345	-14.932760	 4.142426	-0.011782	 16.517790	-0.009411	-2.690739	-4.115196	 14.173870	-0.000460	 0.357275	 0.088667	-7.604479	 9.453614	-26.759490	-0.000135	 0.074639	-0.000020	 8.876445	-8.847336	-2.526968	 0.000717	 0.379667	-0.000968	 0.685311	-1.103622	-1.368485	-0.000000	 0.000000	 0.000000	 1.345663	-2.225400	-2.727627	 3.790334	 2.865420	-13.097080	-87.872350	-32.500670	 3.532968	-1.100232	 6.300008	-14.512420	 32.938460	 26.138370	-35.168960	-3.981772	-2.906455	-14.378350	-3.685007	-2.651270	-14.403950	 4.259678	 5.814289	-15.384710	 77.834070	 4.595786	 1.928633	-1.503722	 2.231780	 11.643460	-27.202950	 28.314210	 24.890470
-0.230300	 1.044520	-0.208530	 1.929736	 2.829398	-9.465839	 2.451930	-15.203110	 4.528656	-0.019615	 18.203800	-0.008410	-2.640414	-5.577550	 13.963040	-0.000508	 0.343930	 0.026646	-7.776732	 9.888167	-27.446390	 0.000336	 0.089501	 0.000285	 8.796242	-8.864167	-1.885909	-0.000314	 0.343564	-0.000557	 0.582647	-1.210493	-1.405601	-0.000000	 0.000000	 0.000000	 1.138125	-2.438251	-2.803758	 3.889842	 3.174227	-13.078280	-88.393740	-33.682220	 2.707660	-1.177787	 5.937182	-14.709640	 32.291660	 26.866390	-34.928000	-3.839190	-2.355363	-14.560810	-3.640828	-2.136696	-14.479620	 4.472520	 5.921388	-15.523710	 77.825010	 4.301564	 1.764236	-1.590526	 2.821660	 11.541690	-27.432540	 28.715200	 25.377390
-0.226850	 1.042800	-0.201960	 1.732583	 2.848405	-9.960316	 2.654222	-15.599390	 5.274345	-0.049843	 19.954760	-0.003591	-2.643168	-7.044368	 13.630610	-0.000148	 0.338951	 0.005527	-7.937176	 10.160820	-28.090710	-0.000133	 0.080232	 0.001182	 8.983473	-8.739752	-1.008510	-0.000377	 0.341285	 0.000249	 0.529780	-1.290133	-1.408939	-0.000000	 0.000000	 0.000000	 1.032553	-2.597252	-2.810381	 3.750889	 3.517180	-12.905180	-88.755060	-34.597690	 1.655403	-0.986095	 5.671915	-14.749040	 31.671880	 27.256990	-34.501210	-3.739784	-1.781940	-14.565510	-3.642083	-1.617678	-14.553400	 4.117497	 6.043951	-15.206840	 78.398510	 3.873610	 1.728072	-1.644648	 3.185059	 11.544340	-27.385840	 28.944320	 25.691900
-0.220900	 1.039950	-0.191960	 1.412734	 3.177919	-10.996430	 3.102419	-16.492990	 7.021008	 0.016324	 22.708760	-0.016133	-2.554610	-9.354647	 12.887240	-0.000538	 0.356034	 0.000014	-8.249226	 10.205950	-28.503080	-0.000716	 0.089143	 0.000112	 10.008220	-8.397551	 0.185528	 0.000024	 0.341839	-0.000145	 0.507269	-1.507763	-1.317678	-0.000000	 0.000000	 0.000000	 0.981118	-3.032429	-2.628809	 3.690140	 3.441706	-12.613330	-88.586450	-34.477950	 1.153256	-0.767028	 5.240119	-14.546900	 31.800050	 27.418600	-34.442410	-3.727762	-1.374632	-14.451630	-3.700745	-0.927863	-14.608590	 4.288760	 5.523977	-14.949440	 78.211930	 3.871227	 2.139463	-1.384074	 2.863584	 11.586160	-26.148190	 28.512040	 25.359490
-0.216940	 1.038460	-0.186030	 1.169731	 3.282660	-11.354770	 3.186852	-16.874650	 7.180836	 0.000522	 24.131210	-0.011383	-2.215385	-10.555460	 13.038910	-0.000907	 0.354418	-0.000100	-8.363661	 10.372090	-28.793310	-0.000636	 0.079882	 0.000904	 10.499930	-8.156607	 0.725163	 0.000195	 0.342110	 0.000078	 0.518727	-1.566094	-1.347804	-0.000000	 0.000000	 0.000000	 1.000606	-3.149604	-2.687351	 3.720085	 3.767845	-12.836020	-88.576360	-34.474340	 0.755458	-0.605140	 5.160475	-14.451700	 31.688420	 27.587260	-34.298500	-3.667808	-0.766633	-14.703650	-3.692023	-0.655736	-14.637450	 4.552927	 5.794263	-15.163290	 77.940680	 3.953734	 2.719357	-1.056845	 2.597519	 12.180770	-24.892890	 28.206000	 24.620550
-0.214220	 1.037580	-0.182130	 1.015296	 3.327217	-11.666390	 3.214020	-17.049020	 7.212905	-0.030039	 24.963950	-0.004772	-1.963810	-11.245480	 13.266670	-0.000229	 0.355972	 0.000575	-8.475250	 10.482040	-28.902000	 0.000413	 0.074322	 0.000013	 10.848700	-7.944834	 1.078393	 0.000599	 0.342420	-0.000732	 0.532230	-1.572246	-1.354364	-0.000000	 0.000000	 0.000000	 1.029235	-3.159780	-2.700492	 3.719551	 3.863255	-12.742540	-88.620000	-34.508000	 0.487267	-0.582046	 5.116158	-14.498640	 31.565010	 27.701070	-34.219120	-3.658814	-0.492556	-14.708480	-3.688539	-0.483375	-14.692940	 4.676994	 5.888363	-15.058430	 77.804690	 3.917891	 2.997113	-0.854405	 2.502572	 12.781020	-24.122140	 28.100370	 24.313460
